<svg width="149" height="45" viewBox="0 0 149 45" fill="none" xmlns="http://www.w3.org/2000/svg">
<rect width="149" height="45" fill="white"/>
<rect x="11" y="11.5294" width="7.89659" height="3.86218" fill="#079528"/>
<rect x="11" y="17.9663" width="7.89659" height="3.86218" fill="#079528"/>
<rect x="11" y="24.4033" width="7.89659" height="3.86218" fill="#079528"/>
<rect x="22.0555" y="24.4033" width="7.89659" height="3.86218" fill="#079528"/>
<rect x="22.0555" y="17.9663" width="7.89659" height="3.86218" fill="#079528"/>
<rect x="26.7933" y="11.5294" width="7.89659" height="3.86218" fill="#079528"/>
<rect x="26.7933" y="30.8404" width="7.89659" height="3.86218" fill="#079528"/>
<rect x="11" y="30.8404" width="7.89659" height="3.86218" fill="#079528"/>
<rect x="39.3774" y="11.5294" width="7.89659" height="3.86218" fill="#079528"/>
<rect x="39.3774" y="17.9663" width="7.89659" height="3.86218" fill="#079528"/>
<rect x="39.3774" y="17.9663" width="7.89659" height="3.86218" fill="#079528"/>
<rect x="42.5364" y="24.4033" width="7.89659" height="3.86218" fill="#079528"/>
<rect x="47.2737" y="30.8404" width="7.89659" height="3.86218" fill="#079528"/>
<rect x="53.5912" y="24.4033" width="7.89659" height="3.86218" fill="#079528"/>
<rect x="56.7505" y="17.9663" width="7.89659" height="3.86218" fill="#079528"/>
<rect x="56.7505" y="11.5294" width="7.89659" height="3.86218" fill="#079528"/>
<path d="M82.8526 10.9498H88.0227L99.6554 35H94.5315L92.6081 30.9532H78.5596L76.6977 35H71.5584L82.8526 10.9498ZM90.6847 26.9371L85.4838 16.0122L80.4214 26.9371H90.6847ZM103.395 10.9498H116.074C117.92 10.9498 119.52 11.1499 120.874 11.5499C122.228 11.95 123.352 12.5296 124.244 13.2887C125.137 14.0375 125.798 14.9556 126.229 16.043C126.67 17.1304 126.891 18.3562 126.891 19.7205C126.891 21.0028 126.675 22.1876 126.244 23.275C125.814 24.3623 125.152 25.3061 124.26 26.1062C123.377 26.8961 122.259 27.5167 120.905 27.9681C119.551 28.4092 117.951 28.6297 116.104 28.6297L108.272 28.6143V35H103.395V10.9498ZM116.197 24.3982C117.12 24.3982 117.925 24.2905 118.612 24.0751C119.31 23.8494 119.89 23.5365 120.351 23.1365C120.823 22.7262 121.172 22.2338 121.398 21.6593C121.633 21.0746 121.751 20.4283 121.751 19.7205C121.751 18.2946 121.285 17.1868 120.351 16.3969C119.428 15.5968 118.043 15.1967 116.197 15.1967H108.272V24.3982H116.197ZM131.615 10.9498H136.523V35H131.615V10.9498Z" fill="#2F2424"/>
</svg>
